<svg xmlns="http://www.w3.org/2000/svg" version="1.1" xmlns:xlink="http://www.w3.org/1999/xlink" xmlns:svgjs="http://svgjs.dev/svgjs" width="800" height="900" viewBox="0 0 800 900"><g transform="matrix(1,0,0,1,0,0)"><svg viewBox="0 0 320 360" data-background-color="#f9f9f9" preserveAspectRatio="xMidYMid meet" height="900" width="800" xmlns="http://www.w3.org/2000/svg" xmlns:xlink="http://www.w3.org/1999/xlink"><defs></defs><g id="tight-bounds" transform="matrix(1,0,0,1,0,0)"><svg viewBox="0 0 320 360" height="360" width="320"><g><svg></svg></g><g><svg viewBox="0 0 320 360" height="360" width="320"><g><path d="M219.58 41.008c0.707 0 6.365 2.829 9.547 3.89-1.061 0.354-3.536-0.707-6.365-1.768 0.707 0 2.122 0.354 3.536 1.06-0.707-0.707-6.011-2.475-6.718-3.182M166.895 30.047c1.061-0.354 13.436 1.414 19.094 1.768 0.354-0.354-0.707-0.354-2.122-0.707 1.768-0.354 5.304 0.707 7.779 1.06-7.425 0.354-15.558-1.768-22.629-1.06-2.475 0-0.707-0.707-2.122-1.061M156.641 30.047c6.365 0 11.315 0 2.121 0.707-1.061-0.354-2.475-0.354-2.121-0.707M256.707 59.395c0.707 0 3.536 3.182 4.95 4.243-0.354 0.354-3.182-2.475-4.596-3.536 0.354 0.354 0 0-0.354-0.707M249.635 54.798c-2.829-2.475-3.889-2.475-4.243-3.889 2.475 1.414 4.243 2.829 4.243 3.889M204.022 32.522c0.354-0.354 1.061 0.354 2.829 0.707-2.122-0.354-1.768 0-1.061 0.707-2.475-0.354-3.182-0.707-2.475-1.414 1.414 0.707 1.768 0.354 0.707 0M103.602 36.765c0-0.354 1.414-1.061 2.475-1.414-1.061 0.707-0.707 1.061 1.061 0.353 0 0.354-2.122 1.061-3.536 1.768 0.707-0.354 1.414-1.414 0-0.707M211.094 28.986c-1.061 0.354-4.95-1.768-8.84-2.475-2.122-0.707 8.486 1.768 8.84 2.475M2.475 203.66c2.122 8.84 0.707 8.486 0 0M2.829 150.621c0.354-1.414 0.707-5.304 1.06-4.95-1.061 8.486-2.829 12.376-3.182 18.74 1.061-5.657-0.354 3.182-0.707 5.304 0.354 2.829 0.354-1.768 1.061-1.06 0.707 1.061-1.414 15.912-0.707 7.779-0.707 7.425 0 15.558 1.414 17.679-1.768 11.315 7.072 36.773 8.84 42.077 0.354 0.354 0-1.768 0.707-0.353 0.707 4.597 3.889 7.779 4.95 12.729 1.061 1.414 5.304 9.193 6.011 10.962 1.414 2.829 2.122 2.475 3.536 5.303 4.243 8.133 10.961 15.912 17.326 23.337 20.508 24.044 51.978 43.845 86.984 50.918 35.006 7.425 71.779 2.122 100.419-11.669 1.768-1.061 1.414-1.414 3.536-2.122 9.901-3.182 21.923-13.436 28.641-17.326 3.182-3.536 11.669-9.547 12.73-13.082 6.011-4.95 12.022-13.083 15.204-18.387 1.768-2.829 3.182-2.829 3.889-4.597-0.354 0 5.657-7.425 7.426-11.668-0.707 0-1.768 2.122-1.768 0 12.729-24.398 19.801-57.282 15.911-79.912 0.707 27.934-6.365 59.05-19.801 78.851-6.011 12.729-18.387 26.519-29.701 36.42-1.768 1.768-3.536 3.889-5.658 5.304-6.718 5.657-14.144 10.254-21.922 14.497-18.387 10.254-38.895 19.094-62.94 19.447 41.37-3.536 78.497-24.398 99.006-49.856-15.558 15.204-22.276 21.215-39.602 30.055-1.414 2.475-13.083 7.425-20.862 9.547 4.597-2.122 14.144-5.657 17.326-8.486-25.812 12.376-54.453 19.448-81.326 15.558 10.254 0 24.751 0.354 38.541-2.121 2.122-0.707 3.182-1.414 5.658-1.768 26.873-6.011 52.685-19.094 71.072-37.481-10.608 9.547-26.519 20.862-36.774 24.398 9.547-5.304 26.873-15.558 32.53-23.337-11.315 11.315-32.53 22.63-45.966 27.58-2.122 0.354 1.414-1.414-2.122 0-4.243 1.061-2.475 1.061-3.536 1.768-16.265 4.597-35.006 8.486-50.563 7.072-2.829-0.354-3.889-1.061-6.365-1.061-2.829-0.354-5.304-0.354-8.486-0.354-12.376-1.414-25.812-6.365-35.713-10.607-5.304-2.475-10.608-4.243-15.912-7.426-4.243-2.475-7.779-5.304-11.314-8.132-13.436-9.901-24.751-19.801-35.36-33.945-19.094-26.519-28.994-59.757-27.58-92.641 1.414-32.884 14.497-65.061 35.359-88.752-1.061 1.061 1.414-2.475 3.536-4.596 0 0.707-0.354 1.768 2.122-0.707 2.122-2.475-0.707-0.707 0.353-2.122 21.923-24.044 60.111-43.492 99.36-44.199 1.414-1.061 3.889-2.475 6.718-1.768 0 0.354-1.768 0.354-1.768 0.354 3.889-0.354 7.425-0.354 9.193 0.353 0.354-0.354-1.414-0.707 0-0.707 2.475 0.707 3.182 0 4.597 0.707-1.061 0-2.122 0-2.829 0.354 8.84 0 14.497 2.122 23.337 2.829-4.597-1.061-5.657-1.061-9.193-2.122 3.889 0.707 5.657 1.414 7.425 1.061-0.707 0-0.354-1.061 0.354-0.707 7.072 1.768 7.779 2.475 15.204 4.95 0.707-0.707-3.182-1.061-4.243-2.122 7.072 2.475 13.436 4.243 17.68 7.072-1.414-1.061-5.657-2.475-8.84-3.889-0.354 0.354 1.061 0.707 1.414 1.414-3.536-1.768-8.486-3.536-13.436-4.243 4.243 1.061 7.072 2.475 8.84 3.182-3.889-0.707-8.84-3.182-14.498-4.243 9.193 2.829 26.519 9.193 37.127 14.851-3.889-2.475-8.486-4.243-10.961-5.657 2.122 0.354 4.597 1.768 4.597 1.06 2.475 1.061 5.657 3.536 7.425 3.89-3.182-2.122-9.547-5.304-11.668-6.365 26.519 12.022 50.21 32.177 65.414 57.989 1.414 2.475 3.536 8.133 5.304 8.84-0.354-1.768-1.768-2.829-3.182-5.657 0.707 0 0.707-1.061 0-2.122-1.414-1.768 0 1.414-1.415-0.354-6.365-11.669-14.144-21.923-26.165-33.237 6.718 6.365 1.768 1.768 0.353-0.354 9.193 8.133 19.801 21.923 24.398 28.995-0.707-1.061-1.061-1.768-0.707-1.768 8.486 14.497 13.79 27.58 19.094 46.32 0.354 0.354 0-1.414 0.707-0.353 3.536 14.851 4.597 27.227 4.243 38.541 2.829-19.094-3.536-48.796-14.851-72.133-1.414-2.829-1.414-0.707-2.829-3.889 0-1.061-1.061-3.182-1.768-4.597-14.144-23.337-31.47-39.956-51.978-53.038 1.414 0.707 4.243 2.829 4.244 2.475-38.188-25.105-82.387-28.641-118.807-20.862-2.475 1.061-3.536 2.122-6.365 3.536 5.304-1.768 8.486-2.122 13.437-3.183 1.061-1.061-4.597 0.354-2.122-0.707 0.354 0.354 4.95-0.707 6.011-0.353 0 0.354-1.414 0.707-1.768 1.06 11.669-2.475 23.691-2.829 33.945-2.121-6.011 0.354-16.972-0.707-20.508 1.061 3.536-0.354 8.486-0.707 11.668-0.354-4.243 0-12.022 0.354-15.558 0.707-0.354-0.354 5.657-1.061 1.768-1.06-1.768 0.354-4.597 0.354-5.657 1.414-30.409 2.829-60.111 18.74-80.973 37.481-4.243 3.536-9.193 7.425-12.375 11.314-7.779 8.84-12.729 17.68-18.387 25.459 3.536-7.425 11.315-18.74 20.508-28.287 9.193-9.547 19.094-17.68 24.398-21.923 0 1.414 8.486-5.304 11.669-7.425-2.122 1.768 1.414-0.707 2.121-0.354 11.315-6.718 20.508-9.193 30.763-13.083-2.475 0.707-4.597 1.414-4.951 1.061 2.475-0.707 3.889-1.414 3.536-1.768-9.901 2.829-25.459 9.547-37.834 16.972 22.276-15.204 50.564-24.398 78.497-24.751 27.934-0.707 55.16 6.365 76.729 17.68 14.497 6.365 28.287 18.033 39.249 29.348 3.182 2.829 0.707-0.707 5.304 4.243-1.414-0.707-2.475-1.414-0.707 0.707 2.829 3.182-0.707-2.475 3.889 3.182-0.354 0-1.768-1.768-1.768-1.061 12.376 10.961 21.923 30.762 27.58 43.846-1.414-5.304-4.95-12.729-7.779-18.033 8.486 15.558 11.315 24.751 14.851 38.541 1.414 1.061-0.707-4.95 0.707-2.121 0.354 2.122 0.707 8.84 2.122 9.9-1.061-6.718-2.829-14.851-4.243-16.265 1.061 0.707-1.768-8.133-3.536-10.254-0.707-5.657-5.657-15.558-9.901-22.984-15.204-29.702-42.431-54.099-72.839-67.536 0-0.707-1.768-1.414-2.476-2.121-30.055-12.729-66.122-16.265-100.773-8.133-35.006 8.486-67.889 28.641-91.227 57.636 1.061-3.536 9.901-10.254 10.255-13.083-10.254 10.961-21.215 25.459-28.641 41.016-7.779 15.558-12.022 31.47-13.79 43.138" fill="#000000" data-fill-palette-color="tertiary"></path></g><g transform="matrix(1,0,0,1,70,90)"><svg viewBox="0 0 180 180" height="180" width="180"><g><svg viewBox="0 0 180 180" height="180" width="180"><g><svg viewBox="0 0 180 180" height="180" width="180"><g><svg viewBox="0 0 180 180" height="180" width="180"><g><svg viewBox="0 0 180 180" height="180" width="180"><g transform="matrix(1,0,0,1,36.93633817016248,36.957795438755)"><svg viewBox="0 0 106.12732365967504 106.08440912249" height="106.08440912249" width="106.12732365967504"><g><circle r="53" cx="53.033008588991066" cy="53.033008588991066" fill="#000000" data-fill-palette-color="accent"></circle><svg xmlns="http://www.w3.org/2000/svg" xmlns:xlink="http://www.w3.org/1999/xlink" version="1.1" x="15.919098548951256" y="15.919098548951256" viewBox="18.499998092651367 4.499999046325684 68.9000015258789 90.80001068115234" enable-background="new 0 0 100 100" xml:space="preserve" height="74.24621202458749" width="74.28912656177253" class="icon-o-0" data-fill-palette-color="background" id="o-0"><path d="M57.7 51.5c2.8-1.3 5.4-2.9 7.6-4.4 5-3.4 8.7-6.9 9.2-7.3 0-0.2 0.1-0.4 0.1-0.5 0.1-0.6 0.3-1.4 0.6-2.3 0.9-3.4 2.4-8.5 0.1-9.7-1.1-0.6-3.7-0.1-6.4 0.9-2.6 2.9-5.8 5.3-9.8 6C59.4 45 58.4 49.7 57.7 51.5z" fill="#f9f9f9" data-fill-palette-color="background"></path><path d="M85 35.9l2.4-6.5h-1.7l0.4-3.3h-1.5v-3.4h-2V19H80v-4.2h-3.6c0 0-2.1 6.8-6.7 12.4 2.4-0.8 4.7-1.2 5.9-0.5 2.6 1.5 1.2 6.7 0.2 10.4-0.2 0.9-0.5 1.7-0.6 2.2-1.5 7.6-1.7 12-1.6 14.2l4-3.6 2.6-2.3-2.2 0 6.1-5.8h-2.4l5-6H85z" fill="#f9f9f9" data-fill-palette-color="background"></path><path d="M73.1 55.3L73.1 55.3c0 0-0.2-1.1-0.2-3.6 0.1-2.1 0.3-5.6 1.3-10.9-1.3 1.2-4.6 4.1-8.6 6.8-2.4 1.6-5.2 3.3-8.3 4.7 0 0 0 0.1 0 0.1 0.1 1.1 0.6 10.7 2 17.2l8.1-5.2c6.1-3.5 5.7-8.5 5.7-8.5V55.3z" fill="#f9f9f9" data-fill-palette-color="background"></path><path d="M58.6 34.3c-0.6 0.1-1.3 0.1-2 0.1h-7c0 0-1.8 0.2-3.7-0.9-0.5 0.7-1.2 1.5-2 2.3-2.1 2.1-4.3 3.6-6.5 4.3 0 0.3-0.1 1-0.2 1.9-0.1 3.2 0.4 9.6 6.1 11.6 1 0.3 2.2 0.5 3.5 0.6 3.3 0.1 6.8-0.9 10.1-2.4C57.5 50.6 58.8 46.3 58.6 34.3z" fill="#f9f9f9" data-fill-palette-color="background"></path><path d="M57 57.2c-0.2-2.2-0.3-3.8-0.3-4.5-6.4 2.4-9.6 2.2-9.8 2.2-3.4-0.1-6-1.3-7.8-3.5-1-1.3-2.3-3.6-2.5-7.5-0.1-1.6 0.1-3 0.1-3.6-0.9 0.2-1.8 0.4-2.7 0.4-1.5 0-3-0.1-4.4-0.3 0.3 6.8 5.5 14.2 12.5 17.7C48.3 61.1 55.8 57.8 57 57.2z" fill="#f9f9f9" data-fill-palette-color="background"></path><path d="M38.7 60.8C31.9 56.6 28.7 51 27.2 47c-1.4-3.7-1.6-6.7-1.6-7.5-1.7-0.5-3.2-1.1-4.4-1.9-0.5 2.4-3.1 19.9 16.2 27.8C37.7 63.7 38.2 62.1 38.7 60.8z" fill="#f9f9f9" data-fill-palette-color="background"></path><path d="M29.1 40.3c-1-0.2-2-0.4-3-0.6 0.1 1 0.3 3.8 1.6 7.2 1.5 3.9 4.6 9.3 11.2 13.4 0.5-1.2 0.9-2.2 1.1-2.6C33.8 53.6 29.4 46.7 29.1 40.3z" fill="#f9f9f9" data-fill-palette-color="background"></path><path d="M31.3 19.3c-1.2 0.3-2.4 0.4-3.3 0.4-1 0-1.7-0.1-2-0.2-0.1 1.5-0.6 2.9-1.6 4L21.3 37c2.8 1.8 7.8 3 12.8 3 4 0 7.3-2.5 9.4-4.7 0.7-0.8 1.4-1.5 1.9-2.2-1.9-1.3-3.8-3.9-4.4-9.1l0 0c0 0 0 0 0 0-0.1-0.5-0.1-1.1-0.1-1.7-0.2-1.9-0.9-5.1-2.6-7.9C36.2 17.5 33.5 18.8 31.3 19.3z" fill="#f9f9f9" data-fill-palette-color="background"></path><path d="M24.5 14c0.3 0.5 0.9 1.6 1.3 3 0.2 0.7 0.3 1.3 0.3 1.9 0.5 0.1 2.7 0.4 5.2-0.2 2.9-0.7 5.1-2.4 6.6-4.9-0.6-0.9-1.4-1.8-2.4-2.6-1.1-0.8-2.2-1.4-3.2-1.7-0.5-0.2-1-0.3-1.6-0.4C29.3 12.5 25.7 13.7 24.5 14z" fill="#f9f9f9" data-fill-palette-color="background"></path><path d="M23.6 22.6c0.3 0 0.6 0 0.9-0.1 2.2-3.6-0.2-7.8-0.7-8.4-0.6 0.1-1.3 0.2-2 0.2-0.3 1.4-1 4.6-1 4.7-0.1 0.2-0.1 0.5-0.1 0.7C20.7 21.3 22 22.6 23.6 22.6z" fill="#f9f9f9" data-fill-palette-color="background"></path><path d="M21.9 13.7c1.7-0.1 3.5-0.6 3.9-0.8 1.4-0.6 3.3-1.8 4.3-3.9-1.6-0.1-4.9 0.1-9.5 2.3 0 0 0 0 0 0-0.8 0.5-1.8 1.4-2.1 2.7 0 0 0.6-0.4 1.4-0.4L21.9 13.7C21.9 13.7 21.9 13.7 21.9 13.7z" fill="#f9f9f9" data-fill-palette-color="background"></path><g fill="#f9f9f9" data-fill-palette-color="background"><path d="M19.9 11c4.8-2.5 8.3-2.7 10-2.6 0.2-0.4 0.4-0.8 0.4-1.3 0-1.3-1.1-2.4-2.4-2.4-0.6 0-1.2 0.2-1.6 0.6-0.4-0.5-1-0.8-1.7-0.8-1.3 0-2.4 1.1-2.4 2.4 0 0 0 0 0 0-0.3-0.1-0.6-0.2-1-0.2C20 6.8 19 7.8 19 9.1 19 9.9 19.4 10.6 19.9 11z" fill="#f9f9f9" data-fill-palette-color="background"></path></g><path d="M59.9 86.3c-0.4-0.2-2.6-1.7-2.6-1.7s0.1-2-0.5-2.5h0.6c1.5 0 1.4-1.5 1.4-1.5-2 0-2.1-1.3-2-1.7l0.5-7.2V71l1.5-1c-0.8-3.7-1.4-8.5-1.7-12.2-0.8 0.4-2.5 1.1-4.7 1.6C51.1 59.7 49.6 60 48 60c-2 0-4.1-0.3-6.1-1.4-0.5-0.2-0.9-0.5-1.3-0.7-0.5 1.1-1.8 4.1-2.7 7.8l3.3 9.6c0 0 0.4 1.9 3.1 2.5 2.3 0.3 3.8 0 4.8-0.2 1.1-0.3 1.3-2 1.3-2.9v-3.6c3.9 0 4 3.6 4 3.6l0 0c0 0.1 0 0.3 0 0.4v8.4c0 0 0.1 0.8-2.3 0.9H48l0.9-6.2c-1.6 0.4-3 0.3-3.1 0.3L44.3 85c-0.8 0.3-1.7 0.8-1.9 1.8 0 0 0.1-0.3 1.5-0.4l-0.4 1.9c0.5 0 1.1-0.1 1.8-0.2 1-0.2 1.9-0.5 2.2-0.7l0.2-1.1h2.7l-0.1 0.8L47.9 88c-0.3 0.1-2.5 1-4.4 1 0 0 0 0-0.1 0l0 0 0 0c-0.3 0-0.6 0-0.9-0.1l-5.6-0.5L34.5 89l3.8 0.8-2 0.3h-2.8l-1.1 0.8 0 0c-0.9 0.6 8.7 0.3 8.7 0.3 0 1.4-0.7 1.4-0.7 1.4l-3.2 1.5 0.1 1.2 6.7-2.8 2.8-3.1 2.3 0.5 8.1-3.6 1.4 1.1h1.8C60.3 87.4 60.3 86.5 59.9 86.3z" fill="#f9f9f9" data-fill-palette-color="background"></path></svg></g></svg></g><path d="M7.244 59.893l-0.194 1.922c0.044 0.057 0.24 0.161 0.588 0.313 0.344 0.144 0.823 0.326 1.436 0.546 0.609 0.212 1.357 0.467 2.245 0.766v0l10.637 3.544c1.291 0.434 2.336 1.006 3.134 1.717 0.801 0.704 1.324 1.504 1.57 2.399 0.239 0.894 0.191 1.841-0.146 2.842v0c-0.337 1.001-0.83 1.771-1.481 2.31-0.651 0.538-1.272 0.708-1.864 0.508v0c-0.365-0.123-0.624-0.333-0.777-0.629-0.146-0.295-0.158-0.624-0.035-0.989v0c0.097-0.29 0.26-0.543 0.487-0.762 0.223-0.226 0.519-0.439 0.887-0.637v0l2.234-1.11-0.831 1.035c0.249-0.491 0.322-0.926 0.218-1.305-0.11-0.381-0.43-0.733-0.959-1.058-0.533-0.333-1.309-0.672-2.329-1.014v0l-11.752-3.952c-0.812-0.273-1.517-0.503-2.112-0.689-0.603-0.189-1.099-0.338-1.49-0.448-0.391-0.11-0.639-0.162-0.746-0.157v0l-1.074 1.848-1.18-0.492 2.296-6.83zM31.574 48.633l-3.672 5.954-1.133-0.593 0.624-1.828c-0.064-0.086-0.255-0.239-0.572-0.458-0.318-0.219-0.75-0.505-1.297-0.859-0.542-0.35-1.183-0.753-1.924-1.21v0l-4.504-2.778c-0.763-0.471-1.429-0.873-1.995-1.207-0.567-0.334-1.019-0.594-1.358-0.779-0.338-0.185-0.552-0.282-0.641-0.29v0l-1.353 1.379-1.039-0.746 3.673-5.955 1.132 0.593-0.624 1.828c0.047 0.076 0.217 0.224 0.511 0.444 0.297 0.214 0.719 0.498 1.266 0.852 0.545 0.344 1.225 0.767 2.039 1.269v0l4.505 2.778c0.775 0.478 1.438 0.883 1.99 1.216 0.561 0.33 1.004 0.58 1.329 0.749 0.328 0.164 0.546 0.255 0.651 0.273v0l1.354-1.378zM47.175 26.914l-0.58 0.487-3.93-4.677c-0.718-0.855-1.324-1.565-1.817-2.131-0.488-0.571-0.875-1-1.161-1.289-0.281-0.293-0.463-0.457-0.544-0.493v0l-1.863 1.005-0.752-1.034 4.586-3.853 0.889 0.919-1.166 1.539c0.036 0.074 0.174 0.274 0.414 0.602 0.235 0.332 0.587 0.791 1.055 1.379 0.468 0.588 1.061 1.309 1.778 2.163v0l4.36 5.189c0.47 0.56 0.935 1.102 1.394 1.627 0.454 0.53 0.909 1.067 1.366 1.612v0l-1.167 0.98-18.302-3.873 0.728-0.651 4.809 5.722c0.757 0.9 1.39 1.639 1.901 2.217 0.511 0.577 0.91 1.01 1.196 1.299 0.281 0.293 0.461 0.472 0.54 0.535v0l1.886-1.025 0.752 1.035-4.662 3.917-0.889-0.919 1.166-1.54c-0.034-0.102-0.177-0.32-0.431-0.653-0.245-0.332-0.612-0.805-1.101-1.418-0.485-0.608-1.093-1.347-1.823-2.217v0l-3.11-3.7c-0.521-0.621-0.98-1.151-1.375-1.591-0.391-0.435-0.708-0.776-0.951-1.023-0.238-0.252-0.404-0.403-0.499-0.454v0l-1.717 0.884-0.752-1.034 3.357-2.821zM80.577 18.757l-5.321 0.575-0.226-1.258 1.49-0.592 4.507-16.085 1.894-1.397 8.51 15.871 1.553 0.263 0.047 1.278-6.737 0.728-0.197-1.262 1.827-0.629-2.221-4.13-0.441-0.935-4.05-7.511 0.734-0.26-2.068 8.323-0.228 0.947-1.07 4.576 1.919 0.224zM79.077 13.416v0l-0.189-1.753c0.385-0.022 0.884-0.049 1.495-0.082 0.604-0.039 1.372-0.108 2.303-0.209v0c0.905-0.098 1.67-0.194 2.294-0.288 0.617-0.1 1.107-0.18 1.468-0.238v0l0.186 1.724c-0.581 0.063-1.19 0.119-1.826 0.167-0.636 0.049-1.288 0.109-1.955 0.181v0c-0.667 0.072-1.307 0.151-1.919 0.238-0.612 0.086-1.231 0.173-1.857 0.26zM109.902 19.527l-6.886-1.237 0.137-1.271 1.93-0.089c0.057-0.091 0.129-0.324 0.217-0.7 0.088-0.376 0.196-0.883 0.324-1.522 0.127-0.632 0.267-1.376 0.421-2.233v0l0.935-5.208c0.159-0.883 0.289-1.649 0.392-2.299 0.103-0.65 0.179-1.166 0.228-1.549 0.048-0.383 0.06-0.617 0.035-0.702v0l-1.778-0.755 0.313-1.24 6.886 1.237-0.137 1.271-1.929 0.089c-0.053 0.071-0.129 0.284-0.226 0.638-0.091 0.355-0.2 0.852-0.329 1.49-0.12 0.633-0.265 1.421-0.434 2.362v0l-0.935 5.209c-0.161 0.896-0.295 1.662-0.402 2.297-0.102 0.643-0.172 1.147-0.211 1.511-0.032 0.366-0.037 0.601-0.015 0.706v0l1.778 0.755zM149.748 21.705l-1.754-0.81c-0.068 0.023-0.231 0.174-0.488 0.454-0.248 0.278-0.576 0.672-0.984 1.179-0.399 0.506-0.884 1.131-1.456 1.873v0l-6.819 8.899c-0.831 1.079-1.713 1.88-2.645 2.403-0.926 0.527-1.853 0.761-2.78 0.702-0.923-0.065-1.802-0.42-2.639-1.065v0c-0.837-0.645-1.403-1.362-1.7-2.153-0.297-0.791-0.254-1.433 0.126-1.928v0c0.235-0.305 0.518-0.482 0.849-0.53 0.326-0.042 0.642 0.054 0.947 0.29v0c0.242 0.187 0.429 0.423 0.56 0.709 0.141 0.285 0.246 0.634 0.314 1.046v0l0.32 2.474-0.707-1.123c0.383 0.396 0.77 0.606 1.162 0.631 0.396 0.02 0.833-0.167 1.313-0.561 0.489-0.395 1.062-1.019 1.719-1.871v0l7.567-9.82c0.523-0.679 0.97-1.27 1.341-1.773 0.375-0.508 0.678-0.929 0.909-1.262 0.232-0.333 0.362-0.551 0.392-0.655v0l-1.397-1.616 0.85-0.956 5.708 4.398zM152.452 48.379l-4.429-5.416 0.931-0.877 1.524 1.187c0.102-0.032 0.309-0.163 0.62-0.391 0.311-0.229 0.723-0.544 1.235-0.946 0.507-0.398 1.098-0.872 1.771-1.423v0l4.097-3.35c0.694-0.568 1.292-1.065 1.792-1.492 0.501-0.427 0.894-0.77 1.18-1.029 0.286-0.259 0.447-0.43 0.483-0.511v0l-0.861-1.729 1.045-0.738 4.429 5.415-0.931 0.877-1.524-1.187c-0.087 0.02-0.282 0.132-0.586 0.338-0.3 0.211-0.706 0.517-1.219 0.919-0.503 0.403-1.125 0.907-1.865 1.513v0l-4.096 3.35c-0.705 0.576-1.304 1.071-1.799 1.484-0.496 0.422-0.876 0.76-1.143 1.012-0.262 0.257-0.419 0.433-0.47 0.527v0l0.86 1.729zM159.548 61.794l-1.919-4.995 1.159-0.541 0.954 1.288 16.702 0.235 1.836 1.472-13.16 12.294 0.143 1.568-1.223 0.374-2.43-6.327 1.17-0.513 1.075 1.605 3.424-3.205 0.79-0.667 6.223-5.839 0.439 0.643-8.575 0.134-0.974 0.022-4.697 0.139 0.275 1.912zM164.327 58.977v0l1.646-0.633c0.12 0.367 0.273 0.842 0.462 1.424 0.192 0.574 0.456 1.298 0.792 2.173v0c0.326 0.85 0.615 1.564 0.866 2.144 0.255 0.571 0.457 1.024 0.607 1.357v0l-1.619 0.622c-0.21-0.546-0.42-1.12-0.629-1.722-0.21-0.603-0.435-1.217-0.676-1.844v0c-0.241-0.626-0.481-1.224-0.722-1.794-0.24-0.57-0.483-1.145-0.727-1.727zM26.499 118.002l-1.034-1.691c-0.069-0.019-0.292 0.018-0.668 0.11-0.376 0.092-0.879 0.241-1.511 0.447-0.634 0.2-1.404 0.454-2.31 0.76v0l-10.885 3.713c-1.322 0.447-2.529 0.631-3.622 0.551-1.093-0.079-2.015-0.409-2.765-0.99-0.757-0.579-1.309-1.381-1.655-2.407v0c-0.345-1.02-0.418-1.952-0.22-2.797 0.198-0.845 0.602-1.371 1.212-1.578v0c0.371-0.126 0.709-0.113 1.012 0.036 0.303 0.15 0.518 0.411 0.643 0.782v0c0.1 0.296 0.128 0.606 0.083 0.93-0.045 0.324-0.157 0.677-0.336 1.06v0l-1.127 2.296 0.035-1.358c0.097 0.556 0.309 0.955 0.635 1.195 0.32 0.242 0.8 0.333 1.438 0.271 0.638-0.062 1.48-0.269 2.525-0.623v0l12.047-4.073c0.831-0.281 1.549-0.531 2.155-0.75 0.608-0.213 1.104-0.395 1.489-0.546 0.39-0.153 0.625-0.267 0.704-0.343v0l-0.271-2.17 1.275-0.337 2.366 6.996zM20.297 142.628l-3.763-6.098 1.059-0.77 1.388 1.415c0.115-0.016 0.344-0.119 0.689-0.308 0.35-0.192 0.809-0.46 1.378-0.803 0.572-0.338 1.24-0.742 2.004-1.213v0l4.613-2.847c0.78-0.481 1.453-0.904 2.017-1.267 0.573-0.361 1.021-0.654 1.345-0.877 0.329-0.226 0.515-0.38 0.558-0.461v0l-0.642-1.876 1.172-0.606 3.762 6.098-1.067 0.776-1.388-1.415c-0.089 0.008-0.3 0.095-0.635 0.262-0.34 0.171-0.794 0.427-1.363 0.771-0.572 0.338-1.274 0.763-2.105 1.276v0l-4.614 2.846c-0.797 0.492-1.475 0.918-2.034 1.278-0.568 0.358-1.001 0.649-1.3 0.873-0.299 0.224-0.484 0.38-0.553 0.47v0l0.642 1.876zM45.032 160.189l-0.596-0.5 4.029-4.802c0.734-0.875 1.344-1.613 1.829-2.212 0.485-0.599 0.85-1.065 1.095-1.397 0.244-0.342 0.376-0.556 0.396-0.643v0l-1.344-1.701 0.914-0.95 4.711 3.952-0.777 1.066-1.763-0.907c-0.067 0.048-0.247 0.222-0.542 0.521-0.285 0.298-0.683 0.737-1.193 1.315-0.516 0.573-1.141 1.298-1.875 2.173v0l-4.471 5.329c-0.478 0.57-0.943 1.134-1.394 1.692-0.451 0.558-0.911 1.117-1.381 1.678v0l-1.199-1.006 0.668-19.186 0.783 0.617-4.932 5.879c-0.773 0.921-1.403 1.693-1.891 2.316-0.493 0.619-0.864 1.097-1.113 1.435-0.239 0.337-0.385 0.553-0.438 0.646v0l1.367 1.72-0.908 0.942-4.779-4.009 0.77-1.058 1.763 0.907c0.099-0.056 0.293-0.24 0.582-0.554 0.289-0.313 0.699-0.771 1.23-1.374 0.528-0.598 1.165-1.342 1.913-2.233v0l3.19-3.802c0.534-0.636 0.987-1.192 1.36-1.668 0.369-0.471 0.661-0.85 0.877-1.138 0.211-0.283 0.333-0.475 0.367-0.577v0l-1.2-1.579 0.914-0.95 3.436 2.883zM79.142 178.632l-5.46-0.584 0.05-1.308 1.622-0.267 8.026-15.138 2.2-0.987 5.064 17.762 1.499 0.601-0.228 1.289-6.917-0.741 0.08-1.304 1.969-0.23-1.328-4.633-0.231-1.027-2.427-8.408 0.803-0.105-3.892 7.893-0.437 0.895-2.07 4.359 1.876 0.642zM78.808 172.954v0l0.193-1.804c0.388 0.062 0.89 0.142 1.508 0.242 0.617 0.1 1.402 0.2 2.353 0.302v0c0.931 0.1 1.719 0.167 2.364 0.203 0.644 0.036 1.153 0.063 1.524 0.083v0l-0.19 1.774c-0.601-0.064-1.224-0.141-1.869-0.231-0.651-0.096-1.317-0.181-1.998-0.254v0c-0.68-0.073-1.339-0.13-1.976-0.171-0.63-0.047-1.266-0.095-1.909-0.144zM112.443 177.712l-7.052 1.272-0.33-1.267 1.825-0.775c0.027-0.113 0.015-0.364-0.035-0.753-0.051-0.396-0.132-0.921-0.243-1.577-0.105-0.656-0.237-1.426-0.397-2.308v0l-0.962-5.335c-0.163-0.902-0.31-1.682-0.443-2.341-0.127-0.666-0.235-1.19-0.324-1.572-0.09-0.389-0.166-0.618-0.225-0.688v0l-1.981-0.088-0.135-1.313 7.051-1.272 0.332 1.277-1.825 0.775c-0.025 0.086-0.021 0.314 0.013 0.686 0.035 0.379 0.108 0.895 0.218 1.55 0.105 0.656 0.244 1.465 0.418 2.427v0l0.963 5.335c0.166 0.922 0.315 1.709 0.446 2.36 0.126 0.659 0.238 1.169 0.336 1.529 0.099 0.36 0.177 0.589 0.236 0.687v0l1.98 0.088zM137.356 146.454l-1.267 1.525c0.005 0.072 0.111 0.271 0.319 0.596 0.208 0.326 0.512 0.754 0.912 1.286 0.394 0.535 0.882 1.182 1.465 1.941v0l7.026 9.105c0.85 1.107 1.413 2.19 1.691 3.25 0.278 1.06 0.263 2.039-0.045 2.937-0.304 0.903-0.885 1.684-1.744 2.343v0c-0.854 0.655-1.713 1.026-2.577 1.111-0.864 0.085-1.492-0.128-1.885-0.638v0c-0.239-0.311-0.336-0.634-0.292-0.97 0.044-0.335 0.222-0.622 0.533-0.861v0c0.248-0.19 0.532-0.316 0.853-0.378 0.321-0.062 0.692-0.07 1.112-0.025v0l2.537 0.327-1.297 0.405c0.495-0.271 0.804-0.6 0.926-0.987 0.126-0.381 0.057-0.864-0.208-1.449-0.264-0.584-0.732-1.314-1.404-2.189v0l-7.743-10.087c-0.534-0.696-1.002-1.295-1.405-1.798-0.398-0.507-0.73-0.918-0.997-1.233-0.271-0.32-0.455-0.505-0.552-0.556v0l-1.967 0.957-0.73-1.098 5.858-4.497zM162.664 144.372l-4.556 5.531-1.071-0.754 0.891-1.771c-0.052-0.103-0.224-0.288-0.514-0.552-0.295-0.269-0.697-0.617-1.205-1.044-0.504-0.433-1.103-0.934-1.795-1.505v0l-4.185-3.446c-0.708-0.583-1.325-1.083-1.851-1.499-0.527-0.426-0.949-0.755-1.264-0.99-0.32-0.238-0.526-0.364-0.617-0.379v0l-1.568 1.214-0.952-0.914 4.555-5.531 1.079 0.76-0.891 1.771c0.036 0.081 0.187 0.253 0.454 0.515 0.271 0.266 0.661 0.613 1.17 1.041 0.504 0.433 1.134 0.959 1.887 1.581v0l4.185 3.447c0.723 0.596 1.345 1.099 1.866 1.511 0.522 0.421 0.937 0.738 1.246 0.949 0.308 0.211 0.516 0.335 0.624 0.371v0l1.567-1.213zM171.841 127.442l-1.984 5.12-1.25-0.388 0.164-1.636-12.531-11.684-0.382-2.381 18.468-0.274 0.97-1.291 1.185 0.555-2.513 6.487-1.239-0.416 0.29-1.961-4.819 0.078-1.051-0.044-8.751 0.159 0.108-0.803 6.609 5.81 0.752 0.654 3.67 3.132 1.108-1.644zM166.27 126.289v0l-1.691-0.656c0.16-0.358 0.369-0.823 0.625-1.393 0.257-0.57 0.558-1.302 0.903-2.193v0c0.338-0.874 0.609-1.617 0.811-2.23 0.202-0.613 0.361-1.096 0.476-1.451v0l1.664 0.645c-0.218 0.564-0.455 1.146-0.709 1.745-0.262 0.604-0.517 1.225-0.764 1.863v0c-0.247 0.638-0.474 1.259-0.679 1.864-0.209 0.596-0.421 1.198-0.636 1.806zM9.271 92.078c0-1.164 0.944-2.108 2.109-2.108 1.164 0 2.108 0.944 2.108 2.108 0 1.164-0.944 2.108-2.108 2.108-1.164 0-2.108-0.944-2.109-2.108zM170.723 92.078c0-1.164 0.944-2.108 2.108-2.108 1.164 0 2.108 0.944 2.108 2.108 0 1.164-0.944 2.108-2.108 2.108-1.164 0-2.108-0.944-2.108-2.108z" fill="#000000" data-fill-palette-color="primary"></path></svg></g></svg></g></svg></g><g></g></svg></g></svg></g></svg></g></svg><rect width="320" height="360" fill="none" stroke="none" visibility="hidden"></rect></g></svg></g></svg>